<svg width="1060" height="284" viewBox="0 0 1060 284" fill="none" xmlns="http://www.w3.org/2000/svg">
<rect x="0.578644" y="142" width="200" height="200" rx="24" transform="rotate(-45 0.578644 142)" fill="#D9D9D9"/>
<rect x="59.9756" y="82.603" width="32" height="200" transform="rotate(-45 59.9756 82.603)" fill="#1E1E1E"/>
<rect x="201.397" y="59.9756" width="32" height="200" transform="rotate(45 201.397 59.9756)" fill="#1E1E1E"/>
<rect x="65" y="141.784" width="108.589" height="108.589" rx="14" transform="rotate(-45 65 141.784)" fill="#1E1E1E"/>
<path d="M109.598 123.212L141.81 104.615L174.022 123.212L174.022 160.408L141.81 179.006L109.598 160.408L109.598 123.212Z" fill="#D9D9D9"/>
<path d="M330.009 235.909V85.9091H364.384V104.588H365.449C366.869 101.274 368.882 98.0777 371.486 95C374.137 91.9223 377.499 89.4129 381.571 87.4716C385.69 85.483 390.615 84.4886 396.344 84.4886C403.92 84.4886 410.998 86.4773 417.58 90.4545C424.208 94.4318 429.559 100.563 433.631 108.849C437.703 117.135 439.739 127.694 439.739 140.526C439.739 152.884 437.774 163.229 433.844 171.562C429.961 179.896 424.705 186.146 418.077 190.312C411.495 194.479 404.18 196.562 396.131 196.562C390.638 196.562 385.88 195.663 381.855 193.864C377.83 192.064 374.445 189.697 371.699 186.761C369 183.826 366.917 180.677 365.449 177.315H364.739V235.909H330.009ZM364.028 140.455C364.028 146.326 364.81 151.439 366.372 155.795C367.982 160.152 370.278 163.537 373.261 165.952C376.292 168.319 379.914 169.503 384.128 169.503C388.389 169.503 392.011 168.319 394.994 165.952C397.977 163.537 400.226 160.152 401.741 155.795C403.304 151.439 404.085 146.326 404.085 140.455C404.085 134.583 403.304 129.493 401.741 125.185C400.226 120.876 397.977 117.538 394.994 115.17C392.059 112.803 388.437 111.619 384.128 111.619C379.866 111.619 376.244 112.779 373.261 115.099C370.278 117.42 367.982 120.734 366.372 125.043C364.81 129.351 364.028 134.489 364.028 140.455ZM462.938 195V85.9091H496.674V105.795H497.81C499.799 98.5985 503.042 93.2481 507.54 89.7443C512.039 86.1932 517.271 84.4176 523.237 84.4176C524.846 84.4176 526.504 84.536 528.208 84.7727C529.913 84.9621 531.499 85.2699 532.967 85.696V115.881C531.309 115.312 529.131 114.863 526.433 114.531C523.781 114.2 521.414 114.034 519.33 114.034C515.211 114.034 511.494 114.957 508.18 116.804C504.913 118.603 502.332 121.136 500.438 124.403C498.592 127.623 497.668 131.411 497.668 135.767V195H462.938ZM597.448 197.06C586.037 197.06 576.189 194.811 567.903 190.312C559.664 185.767 553.319 179.304 548.869 170.923C544.465 162.495 542.263 152.481 542.263 140.881C542.263 129.612 544.489 119.763 548.94 111.335C553.39 102.86 559.664 96.2784 567.761 91.5909C575.857 86.8561 585.398 84.4886 596.383 84.4886C604.148 84.4886 611.25 85.696 617.69 88.1108C624.129 90.5256 629.692 94.1004 634.38 98.8352C639.067 103.57 642.713 109.418 645.317 116.378C647.922 123.291 649.224 131.222 649.224 140.17V148.835H554.408V128.665H616.908C616.861 124.972 615.985 121.681 614.281 118.793C612.576 115.904 610.232 113.655 607.249 112.045C604.314 110.388 600.928 109.56 597.093 109.56C593.21 109.56 589.73 110.436 586.653 112.188C583.575 113.892 581.137 116.236 579.337 119.219C577.538 122.154 576.591 125.492 576.496 129.233V149.759C576.496 154.209 577.372 158.116 579.124 161.477C580.876 164.792 583.362 167.372 586.582 169.219C589.801 171.065 593.637 171.989 598.087 171.989C601.165 171.989 603.959 171.562 606.468 170.71C608.978 169.858 611.132 168.603 612.931 166.946C614.73 165.289 616.08 163.253 616.979 160.838L648.869 161.761C647.543 168.911 644.631 175.137 640.133 180.44C635.682 185.696 629.835 189.792 622.59 192.727C615.346 195.616 606.965 197.06 597.448 197.06ZM672.246 195V175.185L722.814 113.608V112.898H674.021V85.9091H764.22V107.642L717.345 167.301V168.011H765.925V195H672.246ZM828.098 132.784V195H793.368V85.9091H826.393V105.938H827.601C830.016 99.2614 834.135 94.0294 839.959 90.2415C845.783 86.4062 852.719 84.4886 860.768 84.4886C868.439 84.4886 875.091 86.2169 880.726 89.6733C886.408 93.0824 890.811 97.8646 893.936 104.02C897.108 110.128 898.671 117.277 898.624 125.469V195H863.893V132.287C863.941 126.226 862.402 121.491 859.277 118.082C856.199 114.673 851.914 112.969 846.422 112.969C842.776 112.969 839.556 113.774 836.763 115.384C834.017 116.946 831.886 119.195 830.371 122.131C828.903 125.066 828.145 128.617 828.098 132.784ZM986.702 85.9091V111.477H917.881V85.9091H986.702ZM932.299 59.7727H967.029V160.696C967.029 162.827 967.361 164.555 968.023 165.881C968.734 167.159 969.752 168.082 971.077 168.651C972.403 169.171 973.989 169.432 975.836 169.432C977.162 169.432 978.558 169.313 980.026 169.077C981.541 168.793 982.678 168.556 983.435 168.366L988.691 193.438C987.034 193.911 984.69 194.503 981.66 195.213C978.677 195.923 975.102 196.373 970.935 196.562C962.791 196.941 955.808 195.994 949.984 193.722C944.207 191.402 939.78 187.803 936.702 182.926C933.672 178.049 932.204 171.918 932.299 164.531V59.7727ZM1028.95 197.06C1023.84 197.06 1019.46 195.26 1015.81 191.662C1012.22 188.063 1010.44 183.707 1010.49 178.594C1010.44 173.575 1012.22 169.29 1015.81 165.739C1019.46 162.14 1023.84 160.341 1028.95 160.341C1033.78 160.341 1038.04 162.14 1041.74 165.739C1045.48 169.29 1047.37 173.575 1047.42 178.594C1047.37 182.003 1046.47 185.104 1044.72 187.898C1043.02 190.691 1040.77 192.917 1037.97 194.574C1035.23 196.231 1032.22 197.06 1028.95 197.06Z" fill="#EEEEEE"/>
</svg>
