<svg width="300" height="300" viewBox="0 0 300 300" fill="none" xmlns="http://www.w3.org/2000/svg">
<rect width="300" height="300" rx="32" fill="#1E1E1E"/>
<rect x="9" y="151.421" width="200" height="200" rx="32" transform="rotate(-45 9 151.421)" fill="#D9D9D9"/>
<rect x="226.844" y="216.531" width="16" height="201.569" transform="rotate(135 226.844 216.531)" fill="#1E1E1E"/>
<rect x="216.5" y="73" width="16" height="202.94" transform="rotate(45 216.5 73)" fill="#1E1E1E"/>
<rect x="110" y="111" width="80" height="80" fill="#1E1E1E"/>
<path d="M144.302 121.782C147.435 118.602 152.565 118.602 155.698 121.782L178.466 144.885C181.535 147.999 181.535 153.001 178.466 156.115L155.698 179.218C152.565 182.398 147.435 182.398 144.302 179.218L121.534 156.115C118.465 153.001 118.465 147.999 121.534 144.885L144.302 121.782Z" fill="#D9D9D9"/>
</svg>
